HIERARCHY
ROOT Hips
{
	OFFSET 0.00000 0.00000 0.00000
	CHANNELS 6 Xposition Yposition Zposition Zrotation Yrotation Xrotation 
	JOINT LHipJoint
	{
		OFFSET 0 0 0
		CHANNELS 3 Zrotation Yrotation Xrotation
		JOINT LeftUpLeg
		{
			OFFSET 1.28858 -1.83292 1.03970
			CHANNELS 3 Zrotation Yrotation Xrotation
			JOINT LeftLeg
			{
				OFFSET 2.47846 -6.80952 0.00000
				CHANNELS 3 Zrotation Yrotation Xrotation
				JOINT LeftFoot
				{
					OFFSET 2.75274 -7.56311 0.00000
					CHANNELS 3 Zrotation Yrotation Xrotation
					JOINT LeftToeBase
					{
						OFFSET 0.12848 -0.35301 1.68223
						CHANNELS 3 Zrotation Yrotation Xrotation
						End Site
						{
							OFFSET 0.00000 -0.00000 0.87311
						}
					}
				}
			}
		}
	}
	JOINT RHipJoint
	{
		OFFSET 0 0 0
		CHANNELS 3 Zrotation Yrotation Xrotation
		JOINT RightUpLeg
		{
			OFFSET -1.31183 -1.83292 1.03970
			CHANNELS 3 Zrotation Yrotation Xrotation
			JOINT RightLeg
			{
				OFFSET -2.44740 -6.72417 0.00000
				CHANNELS 3 Zrotation Yrotation Xrotation
				JOINT RightFoot
				{
					OFFSET -2.67343 -7.34519 0.00000
					CHANNELS 3 Zrotation Yrotation Xrotation
					JOINT RightToeBase
					{
						OFFSET -0.16914 -0.46471 1.77626
						CHANNELS 3 Zrotation Yrotation Xrotation
						End Site
						{
							OFFSET -0.00000 -0.00000 0.92777
						}
					}
				}
			}
		}
	}
	JOINT LowerBack
	{
		OFFSET 0 0 0
		CHANNELS 3 Zrotation Yrotation Xrotation
		JOINT Spine
		{
			OFFSET 0.01249 2.14252 0.03842
			CHANNELS 3 Zrotation Yrotation Xrotation
			JOINT Spine1
			{
				OFFSET -0.02957 2.14199 -0.03751
				CHANNELS 3 Zrotation Yrotation Xrotation
				JOINT Neck
				{
					OFFSET 0 0 0
					CHANNELS 3 Zrotation Yrotation Xrotation
					JOINT Neck1
					{
						OFFSET -0.01678 1.65709 -0.05476
						CHANNELS 3 Zrotation Yrotation Xrotation
						JOINT Head
						{
							OFFSET 0.07912 1.58331 -0.11843
							CHANNELS 3 Zrotation Yrotation Xrotation
							End Site
							{
								OFFSET 0.03298 1.73940 -0.04271
							}
						}
					}
				}
				JOINT LeftShoulder
				{
					OFFSET 0 0 0
					CHANNELS 3 Zrotation Yrotation Xrotation
					JOINT LeftArm
					{
						OFFSET 3.39556 1.16496 0.08673
						CHANNELS 3 Zrotation Yrotation Xrotation
						JOINT LeftForeArm
						{
							OFFSET 5.23910 -0.00000 -0.00000
							CHANNELS 3 Zrotation Yrotation Xrotation
							JOINT LeftHand
							{
								OFFSET 3.31467 -0.00000 0.00000
								CHANNELS 3 Zrotation Yrotation Xrotation
								JOINT LeftFingerBase
								{
									OFFSET 0 0 0
									CHANNELS 3 Zrotation Yrotation Xrotation
									JOINT LeftHandIndex1
									{
										OFFSET 0.96590 -0.00000 0.00000
										CHANNELS 3 Zrotation Yrotation Xrotation
										End Site
										{
											OFFSET 0.77873 -0.00000 0.00000
										}
									}
								}
								JOINT LThumb
								{
									OFFSET 0 0 0
									CHANNELS 3 Zrotation Yrotation Xrotation
									End Site
									{
										OFFSET 0.79062 -0.00000 0.79062
									}
								}
							}
						}
					}
				}
				JOINT RightShoulder
				{
					OFFSET 0 0 0
					CHANNELS 3 Zrotation Yrotation Xrotation
					JOINT RightArm
					{
						OFFSET -3.27193 1.31331 0.33940
						CHANNELS 3 Zrotation Yrotation Xrotation
						JOINT RightForeArm
						{
							OFFSET -5.30252 -0.00000 0.00000
							CHANNELS 3 Zrotation Yrotation Xrotation
							JOINT RightHand
							{
								OFFSET -3.67875 -0.00000 0.00000
								CHANNELS 3 Zrotation Yrotation Xrotation
								JOINT RightFingerBase
								{
									OFFSET 0 0 0
									CHANNELS 3 Zrotation Yrotation Xrotation
									JOINT RightHandIndex1
									{
										OFFSET -0.59481 -0.00000 0.00000
										CHANNELS 3 Zrotation Yrotation Xrotation
										End Site
										{
											OFFSET -0.47955 -0.00000 0.00000
										}
									}
								}
								JOINT RThumb
								{
									OFFSET 0 0 0
									CHANNELS 3 Zrotation Yrotation Xrotation
									End Site
									{
										OFFSET -0.48687 -0.00000 0.48687
									}
								}
							}
						}
					}
				}
			}
		}
	}
}
MOTION
Frames: 10
Frame Time: 0.0444444
0.00 0.00 0.00 0 0 0 0 0 0 -21 0 0 0 0 0 0 0 0 0 0 0 0 0 0 21 0 0 0 0 0 0 0 0 0 0 0 0 0 0 0 0 0 0 0 0 0 0 -16 0 0 21 0 0 11 0 0 0 -8 0 0 0 0 0 0 0 0 0 0 0 0 0 0 0 0 0 0 0 0 8 0 0 0 0 0 0 0 0 0 0 0 0 0 0 0 0 0
0.00 0.00 0.00 -173.0530 19.4772 -152.3250 0.0000 0.0000 0.0000 -4.9831 -4.3737 -73.5522 4.2340 12.4655 37.3992 -0.0010 -1.8714 -1.2148 8.0586 16.1622 52.7734 0.0000 0.0000 0.0000 27.1447 11.8040 -27.1153 -5.6257 -14.0555 43.4604 11.4509 -52.2610 -3.6180 -12.5539 18.6151 -67.7342 -6.4191 3.0784 18.6163 -1.3490 4.9603 11.2200 1.3493 2.9480 1.4169 -8.7110 -8.4190 7.5868 -2.3505 -11.8715 -5.8360 1.2161 -5.3191 -2.8070 0.0000 -0.0000 0.0000 43.0710 -36.6555 -55.0115 18.5832 -28.8975 -4.8278 -0.0000 0.0000 -60.9745 26.2543 0.4202 0.2073 -7.1250 0.0000 -0.0000 -0.2468 30.4483 0.0877 0.0000 -0.0000 0.0000 -92.2699 47.6397 -142.7878 -8.4841 14.3345 -1.0688 0.0000 0.0000 16.1404 -15.1121 -37.2406 9.2814 7.1250 -0.0000 -0.0000 25.5642 -66.5113 -13.6328
0.00 0.00 0.00 -168.0960 14.5756 -142.4920 0.0000 0.0000 0.0000 2.1998 -5.6677 -84.8786 8.9373 16.7672 55.8731 -0.1888 -7.9290 0.7908 8.3969 16.4036 53.9801 0.0000 0.0000 0.0000 29.8105 1.5401 -17.1089 -1.9757 -8.8154 25.2195 4.9800 -35.9719 -17.6293 -0.0613 -1.5978 4.3955 -7.4406 1.7639 26.8779 -1.9858 2.4883 10.7107 1.3291 1.8900 -2.9787 -10.4751 -10.1773 4.0970 -0.1640 -13.7506 -5.9107 1.9738 -6.2760 -1.8576 -0.0000 0.0000 0.0000 47.2361 -36.3942 -55.4953 20.3049 -31.0080 -5.6876 -0.0000 0.0000 -68.3361 33.4357 -5.8149 -3.8272 -7.1250 0.0000 -0.0000 4.9493 23.0287 -2.6283 -0.0000 0.0000 0.0000 -92.5525 47.3135 -154.2764 -7.9879 13.5333 -0.9493 0.0000 0.0000 24.0618 -12.9545 -34.8059 7.4803 7.1250 -0.0000 -0.0000 25.1347 -63.7641 -11.8024
0.00 0.00 0.00 -159.3060 10.1305 -127.5190 0.0000 0.0000 0.0000 13.8655 -1.6492 -90.7473 9.4079 17.0631 57.4903 -0.0116 -8.7816 -5.9325 7.8647 16.0188 52.0738 0.0000 0.0000 0.0000 32.9082 -9.4638 -17.5111 -0.5078 -4.5680 12.6803 -0.6083 1.0064 15.1320 -7.0908 -15.4078 49.2167 -4.5880 2.5804 25.1292 -1.4387 3.7516 9.3567 -0.0130 2.3600 -3.7093 -9.9498 -10.0105 1.7640 2.2780 -13.2375 -5.7485 2.5031 -6.1789 -1.2876 -0.0000 -0.0000 0.0000 48.7002 -34.2891 -54.3631 22.1470 -33.1427 -6.6660 -0.0000 0.0000 -68.4374 36.6397 -8.4475 -6.2353 -7.1250 0.0000 -0.0000 6.9510 19.5337 -4.2580 -0.0000 -0.0000 0.0000 -88.6586 47.1489 -152.8072 -8.5527 14.4448 -1.0858 0.0000 0.0000 20.7486 -12.5418 -47.3974 9.2994 7.1250 -0.0000 -0.0000 47.8887 -73.3693 -34.1197
0.00 0.00 0.00 -154.6240 6.7035 -117.9760 0.0000 0.0000 0.0000 20.6605 1.9797 -94.5609 9.5798 17.1667 58.0744 0.4116 1.8083 -12.9134 3.4648 11.4119 33.6821 0.0000 0.0000 0.0000 37.9549 -16.1396 -23.7976 -0.4242 -4.1800 11.5836 -7.9405 9.1011 56.5371 -0.8028 -5.7186 15.9702 -2.2626 3.1719 20.8469 -1.2089 4.8079 8.4077 -1.1028 2.7684 -2.5497 -9.9718 -9.3924 0.5853 3.9527 -12.3078 -5.5564 2.9844 -5.8067 -0.9676 0.0000 0.0000 0.0000 49.8800 -34.5460 -56.0789 22.6376 -33.6902 -6.9362 -0.0000 0.0000 -68.4799 37.4954 -10.0221 -7.6048 -7.1250 0.0000 -0.0000 7.3291 17.4850 -4.8282 0.0000 0.0000 0.0000 -87.8423 45.5073 -158.4987 -7.5987 12.9003 -0.8603 0.0000 0.0000 26.2408 -16.9474 -34.8448 9.8766 7.1250 -0.0000 -0.0000 20.7556 -64.8834 -10.1876
0.00 0.00 0.00 -150.5490 3.6291 -109.5320 0.0000 0.0000 0.0000 26.1096 5.7376 -96.6403 9.7933 17.2920 58.7953 -1.1520 18.9641 -11.2371 3.0946 10.8467 31.7645 0.0000 0.0000 0.0000 150.7594 63.0457 157.5949 -1.3867 7.4508 -21.0578 -19.7973 8.1956 -89.4199 -8.6652 -16.5874 54.9249 -0.7329 4.0236 17.2748 -1.1335 5.9652 7.3243 -1.8771 3.2581 -1.7565 -10.0061 -8.5686 -0.7292 5.4865 -11.0916 -5.4207 3.4512 -5.2649 -0.6868 0.0000 -0.0000 0.0000 49.8889 -34.9789 -56.7830 22.6106 -33.6603 -6.9213 -0.0000 0.0000 -67.6524 37.1216 -10.6297 -7.9480 -7.1250 0.0000 -0.0000 6.9856 16.7968 -4.7043 0.0000 -0.0000 0.0000 -87.4513 45.7173 -159.3246 -7.2593 12.3453 -0.7861 0.0000 0.0000 28.2770 -11.6388 -39.8431 7.5177 7.1250 -0.0000 -0.0000 33.0184 -67.6602 -18.7871
0.00 0.00 0.00 -144.3820 -3.9106 -96.3153 0.0000 0.0000 0.0000 36.2186 12.1425 -94.5317 8.6694 16.5902 54.9396 -5.2646 40.2679 1.8920 4.4991 12.7965 38.6112 0.0000 0.0000 0.0000 35.2612 -15.2632 -20.5740 -0.8118 -5.7498 16.0602 173.3243 -38.6416 51.4036 -0.6090 4.9950 -13.8944 1.9441 5.3911 13.0243 -1.5587 7.8257 5.5791 -3.7339 4.1141 -0.9048 -7.5807 -6.1782 -5.1376 7.8229 -7.5949 -4.9899 3.7164 -3.5846 -0.0538 0.0000 0.0000 0.0000 48.2309 -35.8473 -53.4495 22.0389 -33.0209 -6.6070 -0.0000 0.0000 -60.5679 37.0577 -10.6582 -7.9506 -7.1250 0.0000 -0.0000 6.9379 16.7721 -4.6754 0.0000 0.0000 0.0000 -88.0284 49.3881 -153.6142 -9.5968 16.1064 -1.3609 0.0000 0.0000 18.6437 -18.7186 -39.5005 12.1631 7.1250 -0.0000 -0.0000 24.5059 -69.5905 -14.7279
0.00 0.00 0.00 -142.5530 -17.3159 -85.2938 0.0000 0.0000 0.0000 51.1644 17.2689 -86.7211 5.1819 13.5858 41.6029 -3.7042 45.7849 19.1700 1.7146 8.2444 23.4589 0.0000 0.0000 0.0000 36.1434 -6.4493 -12.5787 -1.7212 -8.2594 23.5048 -179.6523 -36.4782 24.4280 -1.8645 8.5779 -24.4835 8.1020 6.6027 10.3659 0.3664 10.0639 3.0293 -5.1159 5.1987 -1.2729 -6.3011 -4.4220 -8.7047 9.4394 -4.9766 -5.4496 4.0635 -2.1804 0.2234 0.0000 0.0000 0.0000 49.9358 -42.0810 -80.1848 12.5671 -20.6496 -2.2984 -0.0000 0.0000 -9.4714 17.4834 -18.3238 -5.6553 -7.1250 0.0000 -0.0000 -6.9338 10.9406 5.5335 0.0000 0.0000 0.0000 -88.8223 54.5942 -152.3330 -11.0601 18.3803 -1.7948 0.0000 0.0000 18.8053 -18.9630 -42.5193 13.0736 7.1250 -0.0000 -0.0000 29.4637 -72.2163 -19.5375
0.00 0.00 0.00 -146.7180 -26.6097 -74.3769 0.0000 0.0000 0.0000 60.7006 16.1569 -74.7638 1.9082 8.6723 24.7755 -1.7595 51.8881 32.3419 3.4281 11.3578 33.4963 0.0000 0.0000 0.0000 35.7378 0.5030 -3.8559 -3.6451 -11.6726 34.5833 -176.8371 -32.0165 0.8154 -8.8654 16.7203 -55.6234 9.1256 7.2841 10.1639 1.6208 11.2793 1.1885 -4.6076 5.6774 -3.0033 -5.4038 -1.5704 -11.4705 11.3991 -0.6966 -7.0082 4.3156 0.1302 -0.1181 -0.0000 0.0000 0.0000 50.2654 -47.2692 -83.3963 14.8599 -23.9506 -3.1688 -0.0000 0.0000 -11.0566 30.2857 -17.3344 -9.8710 -7.1250 0.0000 -0.0000 1.5346 10.1129 -1.2417 -0.0000 0.0000 0.0000 -84.3574 57.4949 -145.5232 -12.3593 20.3414 -2.2256 0.0000 0.0000 19.9979 -20.1362 -35.7682 12.0965 7.1250 -0.0000 -0.0000 18.0235 -66.6477 -9.5334
0.00 0.00 0.00 -146.2150 -16.5224 -66.9442 0.0000 0.0000 0.0000 53.3819 10.7281 -68.2254 0.6005 4.9608 13.7967 -10.3524 64.7094 24.6964 0.2049 2.9148 8.0416 0.0000 0.0000 0.0000 18.6598 0.2125 0.4288 -2.6311 -10.0726 29.2120 -176.6567 -34.5732 4.7446 -2.5792 9.9805 -28.9135 -5.3831 7.5302 7.3035 -1.8769 9.3934 0.1340 -0.0567 4.6742 -4.4657 -4.0380 2.3583 -10.1024 7.9432 4.8957 -11.6501 3.3663 2.9782 -2.3585 0.0000 0.0000 0.0000 49.8974 -47.3753 -82.4645 15.5899 -24.9615 -3.4711 -0.0000 0.0000 -12.1499 32.4263 -19.8835 -12.1919 -7.1250 0.0000 -0.0000 2.5552 6.8051 -2.2367 0.0000 0.0000 0.0000 -85.6031 58.0995 -145.1778 -13.1709 21.5372 -2.5157 0.0000 0.0000 12.4518 -31.6743 -35.3795 19.6584 7.1250 -0.0000 -0.0000 2.4073 -69.8082 -1.4287
